<?xml version="1.0" encoding="UTF-8" standalone="no"?>
<svg
   xmlns:dc="http://purl.org/dc/elements/1.1/"
   xmlns:cc="http://creativecommons.org/ns#"
   xmlns:rdf="http://www.w3.org/1999/02/22-rdf-syntax-ns#"
   xmlns:svg="http://www.w3.org/2000/svg"
   xmlns="http://www.w3.org/2000/svg"
   xmlns:sodipodi="http://sodipodi.sourceforge.net/DTD/sodipodi-0.dtd"
   xmlns:inkscape="http://www.inkscape.org/namespaces/inkscape"
   height="224"
   id="Layer_1"
   version="1.1"
   viewBox="0 0 384 224"
   width="384"
   xml:space="preserve"
   sodipodi:docname="optijotIcon.svg"
   inkscape:version="0.92.3 (2405546, 2018-03-11)"><metadata
     id="metadata13"><rdf:RDF><cc:Work
         rdf:about=""><dc:format>image/svg+xml</dc:format><dc:type
           rdf:resource="http://purl.org/dc/dcmitype/StillImage" /><dc:title /></cc:Work></rdf:RDF></metadata><defs
     id="defs11" /><sodipodi:namedview
     pagecolor="#ffffff"
     bordercolor="#666666"
     borderopacity="1"
     objecttolerance="10"
     gridtolerance="10"
     guidetolerance="10"
     inkscape:pageopacity="0"
     inkscape:pageshadow="2"
     inkscape:window-width="1920"
     inkscape:window-height="1017"
     id="namedview9"
     showgrid="false"
     fit-margin-top="0"
     fit-margin-left="0"
     fit-margin-right="0"
     fit-margin-bottom="0"
     inkscape:zoom="1.3037281"
     inkscape:cx="113.06641"
     inkscape:cy="15.136039"
     inkscape:window-x="-8"
     inkscape:window-y="-8"
     inkscape:window-maximized="1"
     inkscape:current-layer="Layer_1" /><path
     inkscape:connector-curvature="0"
     id="path2"
     d="M 383.1,112.2 C 337.8,60 275.2,0 192,0 158.4,0 127.6,9.5 95.1,29.8 67.7,47 39.6,71.2 1,111 l -1,1 6.7,6.9 C 61.8,175.3 109.4,224 192,224 c 36.5,0 71.9,-11.9 108.2,-36.4 30.9,-20.9 57.2,-47.4 78.3,-68.8 l 5.5,-5.5 z M 192,192 c -44.1,0 -80,-35.9 -80,-80 0,-44.1 35.9,-80 80,-80 44.1,0 80,35.9 80,80 0,44.1 -35.9,80 -80,80 z"
     style="fill:#ffffff" /><path
     inkscape:connector-curvature="0"
     id="path4"
     d="m 186.4,82.8 c 0,-6.9 2,-13.4 5.5,-18.8 -26.5,0 -47.9,21.6 -47.9,48.2 0,26.6 21.5,48.1 47.9,48.1 26.4,0 48,-21.5 48,-48.1 v 0 c -5.4,3.5 -11.9,5.5 -18.8,5.5 C 202,117.6 186.4,102 186.4,82.8 Z"
     style="fill:#ffffff" /></svg>